<?xml version="1.0" encoding="UTF-8"?>
<svg viewBox="0 0 185.256 138" xmlns="http://www.w3.org/2000/svg">
 <g transform="translate(214.3 16.207)" fill="#acf">
  <path d="m-153.05-11.207v2c-12.621 1.6299-27.061 4.7024-38 11.468-11.507 7.1172-9.491 16.063 2 21.532-2.536-13.835 24.476-21.273 35-19-7.857 4.9383-37.82 12.626-16.002 23.622 2.255 1.136 4.563 1.7986 7.002 2.3781-8.224-11.623 13.093-14.979 21-16-3.405 4.2297-14.293 3.502-15.218 10.039-0.899 6.3614 10.871 8.8828 15.218 9.6998 13.066 2.4557 29.031 2.5117 42-0.6389 4.6115-1.1203 17.006-5.1373 13.914-12.007-1.4174-3.1484-5.4102-4.9078-7.9136-7.0934 8.3441-1.2341 18.634 4.7195 16 14 2.109-0.9219 4.0885-1.8602 5.9645-3.2238 18.71-13.599-11.957-18.598-16.964-25.776 12.942 1.6713 34.612 5.9484 35 22 2.1483-1.9177 4.4804-3.7542 6.1975-6.091 11.205-15.249-17.872-25-28.198-27.754-3.668-0.9784-7.6133-1.0165-10-4.1551 15.234 1.2039 32.713 5.1329 46 12.876 6.288 3.6646 13.329 10.052 10.258 18.124-2.7616 7.2581-11.5 11.546-18.258 14.188-16.822 6.5765-35.987 9.9836-54 10.772-27.306 1.1957-55.591 0.3271-82-7.2515-9.018-2.588-20.099-4.7901-26.867-11.814-7.645-7.9355-1.043-15.47 6.867-19.632 14.806-7.7901 34.358-11.548 51-12.263z"/>
  <path d="m-144.05 25.793c5.369-1.9718 10.353-2.6066 16-3.169 4.232-0.4215 7.768-0.4215 12 0l7 0.608c2.174 0.3441 11.196 1.8198 8.1096 5.8519-1.91 2.4951-7.2558 2.8243-10.11 3.2701-8.1772 1.2771-29.896 3.2962-33-6.561z"/>
  <path d="m-36.307 24.706c-2.2664 12.892-16.724 17.374-28 19.789-28.313 6.0641-55.648 3.872-84 0.2106 9.261-3.886 22.146 0.3921 32-0.0394 28.576-1.2512 56.046-3.3014 80-19.961z"/>
  <path d="m-41.048 42.793c-4.2818 14.376-22.656 14.799-35 16.424-28.049 3.6937-59.458-2.149-86-11.092-10.476-3.5299-24.579-8.8214-28-20.333 8.264 3.4754 15.481 9.1024 24 12.316 38.216 14.414 87.34 20.268 125 2.6844z"/>
  <path d="m-50.048 57.793c-1.5712 15.199-22.54 14-34 14-28.863 0-74.668-1.9781-93-28 9.518 1.8353 18.642 8.528 28 11.645 29.503 9.8267 70.551 17.958 99 2.3549z"/>
  <path d="m-63.048 65.793-1 1 1-1z"/>
  <path d="m-77.048 76.793c-15.874 14.723-56.256 7.877-70-7 10.157-0.5964 22.636 5.794 33 7.41 12.308 1.918 24.702-0.376 37-0.41z"/>
  <path d="m-143.05 78.793c17.21 9.794 35.09 9.013 54 9-9.7385 10.34-32.788 9.522-44 2.3-3.866-2.49-10.106-6.298-10-11.3z"/>
  <path d="m-142.05 90.793c14.246 8.313 23.916 5.653 39 7-7.1685 8.588-21.832 9.218-31 3.441-3.613-2.277-8.943-5.743-8-10.441z"/>
  <path d="m-120.05 107.79c-3.2973 5.44-9.484 7.225-10 14-6.075-3.65-12.816-10.162-15-17 9.422 2.713 15.111 3.78 25 3z"/>
 </g>
</svg>
